<?xml version="1.0" standalone="no"?>
<!DOCTYPE svg PUBLIC "-//W3C//DTD SVG 20010904//EN"
 "http://www.w3.org/TR/2001/REC-SVG-20010904/DTD/svg10.dtd">
<svg version="1.0" xmlns="http://www.w3.org/2000/svg"
 width="400.000000pt" height="400.000000pt" viewBox="0 0 400.000000 400.000000"
 preserveAspectRatio="xMidYMid meet">
<metadata>
Created by potrace 1.15, written by Peter Selinger 2001-2017
</metadata>
<g transform="translate(0.000000,400.000000) scale(0.100000,-0.100000)"
fill="#000000" stroke="none">
<path d="M1845 3519 c-587 -57 -1097 -459 -1293 -1020 -63 -179 -77 -272 -77
-504 1 -179 4 -225 23 -312 99 -455 396 -842 805 -1050 528 -268 1147 -212
1623 147 410 310 636 820 594 1337 -13 156 -44 301 -72 330 -29 31 -78 30
-108 -2 -25 -27 -25 -37 5 -175 47 -216 31 -489 -42 -708 -69 -208 -171 -370
-338 -537 -166 -167 -321 -264 -530 -334 -163 -54 -242 -66 -440 -66 -198 0
-274 12 -438 67 -575 192 -959 749 -934 1353 15 362 146 664 402 921 169 169
344 277 560 342 172 53 206 57 425 56 196 -1 210 -2 320 -31 185 -49 333 -120
487 -231 l63 -46 -6 -51 c-16 -130 100 -232 228 -203 83 18 138 89 138 178 0
69 -23 115 -79 155 -36 25 -51 29 -109 30 -63 1 -72 4 -113 37 -288 234 -706
355 -1094 317z"/>
<path d="M1803 2743 c-9 -21 -62 -157 -118 -303 -82 -214 -360 -935 -396
-1027 l-9 -23 169 0 169 0 32 93 c18 50 39 104 47 120 l14 27 248 0 249 0 -43
123 -43 122 -158 3 c-87 1 -162 6 -167 11 -4 4 22 91 59 192 36 101 82 230
102 286 21 57 40 103 43 103 3 0 77 -201 163 -447 87 -247 172 -488 189 -538
l32 -90 168 -3 c92 -1 167 -1 167 1 0 2 -97 256 -216 563 -118 307 -238 619
-266 692 l-50 132 -185 0 -184 0 -16 -37z"/>
</g>
</svg>
